<svg xmlns="http://www.w3.org/2000/svg" xmlns:xlink="http://www.w3.org/1999/xlink" id="processonSvg1000" viewBox="-18.67598684210529 -20.33333333333333 928.5986842105264 818.361723334796" width="928.5986842105264" height="818.361723334796"><defs id="ProcessOnDefs1001"><marker id="ProcessOnMarker1053" markerUnits="userSpaceOnUse" orient="auto" markerWidth="16.23606797749979" markerHeight="10.550836550532098" viewBox="-1.0 -1.3763819204711736 16.23606797749979 10.550836550532098" refX="-1.0" refY="3.8990363547948754"><path id="ProcessOnPath1054" d="M12.0 3.8990363547948754L0.0 7.798072709589751V0.0Z" stroke="#323232" stroke-width="2.0" fill="#323232" transform="matrix(1.0,0.0,0.0,1.0,0.0,0.0)"/></marker><marker id="ProcessOnMarker1084" markerUnits="userSpaceOnUse" orient="auto" markerWidth="16.23606797749979" markerHeight="10.550836550532098" viewBox="-1.0 -1.3763819204711736 16.23606797749979 10.550836550532098" refX="-1.0" refY="3.8990363547948754"><path id="ProcessOnPath1085" d="M12.0 3.8990363547948754L0.0 7.798072709589751V0.0Z" stroke="#323232" stroke-width="2.0" fill="#323232" transform="matrix(1.0,0.0,0.0,1.0,0.0,0.0)"/></marker><marker id="ProcessOnMarker1103" markerUnits="userSpaceOnUse" orient="auto" markerWidth="16.23606797749979" markerHeight="10.550836550532098" viewBox="-1.0 -1.3763819204711736 16.23606797749979 10.550836550532098" refX="-1.0" refY="3.8990363547948754"><path id="ProcessOnPath1104" d="M12.0 3.8990363547948754L0.0 7.798072709589751V0.0Z" stroke="#323232" stroke-width="2.0" fill="#323232" transform="matrix(1.0,0.0,0.0,1.0,0.0,0.0)"/></marker><marker id="ProcessOnMarker1110" markerUnits="userSpaceOnUse" orient="auto" markerWidth="16.23606797749979" markerHeight="10.550836550532098" viewBox="-1.0 -1.3763819204711736 16.23606797749979 10.550836550532098" refX="-1.0" refY="3.8990363547948754"><path id="ProcessOnPath1111" d="M12.0 3.8990363547948754L0.0 7.798072709589751V0.0Z" stroke="#000000" stroke-width="2.0" fill="#000000" transform="matrix(1.0,0.0,0.0,1.0,0.0,0.0)"/></marker><marker id="ProcessOnMarker1180" markerUnits="userSpaceOnUse" orient="auto" markerWidth="16.23606797749979" markerHeight="10.550836550532098" viewBox="-1.0 -1.3763819204711736 16.23606797749979 10.550836550532098" refX="-1.0" refY="3.8990363547948754"><path id="ProcessOnPath1181" d="M12.0 3.8990363547948754L0.0 7.798072709589751V0.0Z" stroke="#323232" stroke-width="2.0" fill="#323232" transform="matrix(1.0,0.0,0.0,1.0,0.0,0.0)"/></marker><marker id="ProcessOnMarker1187" markerUnits="userSpaceOnUse" orient="auto" markerWidth="16.23606797749979" markerHeight="10.550836550532098" viewBox="-1.0 -1.3763819204711736 16.23606797749979 10.550836550532098" refX="15.23606797749979" refY="3.8990363547948754"><path id="ProcessOnPath1188" d="M12.0 3.8990363547948754L0.0 7.798072709589751V0.0Z" stroke="#323232" stroke-width="2.0" fill="#323232" transform="matrix(-1.0,1.2246467991473532E-16,-1.2246467991473532E-16,-1.0,14.23606797749979,7.798072709589751)"/></marker><marker id="ProcessOnMarker1189" markerUnits="userSpaceOnUse" orient="auto" markerWidth="16.23606797749979" markerHeight="10.550836550532098" viewBox="-1.0 -1.3763819204711736 16.23606797749979 10.550836550532098" refX="-1.0" refY="3.8990363547948754"><path id="ProcessOnPath1190" d="M12.0 3.8990363547948754L0.0 7.798072709589751V0.0Z" stroke="#323232" stroke-width="2.0" fill="#323232" transform="matrix(1.0,0.0,0.0,1.0,0.0,0.0)"/></marker><marker id="ProcessOnMarker1225" markerUnits="userSpaceOnUse" orient="auto" markerWidth="16.23606797749979" markerHeight="10.550836550532098" viewBox="-1.0 -1.3763819204711736 16.23606797749979 10.550836550532098" refX="-1.0" refY="3.8990363547948754"><path id="ProcessOnPath1226" d="M12.0 3.8990363547948754L0.0 7.798072709589751V0.0Z" stroke="#323232" stroke-width="2.0" fill="#323232" transform="matrix(1.0,0.0,0.0,1.0,0.0,0.0)"/></marker><marker id="ProcessOnMarker1232" markerUnits="userSpaceOnUse" orient="auto" markerWidth="16.23606797749979" markerHeight="10.550836550532098" viewBox="-1.0 -1.3763819204711736 16.23606797749979 10.550836550532098" refX="-1.0" refY="3.8990363547948754"><path id="ProcessOnPath1233" d="M12.0 3.8990363547948754L0.0 7.798072709589751V0.0Z" stroke="#323232" stroke-width="2.0" fill="#323232" transform="matrix(1.0,0.0,0.0,1.0,0.0,0.0)"/></marker></defs><g id="ProcessOnG1002"><path id="ProcessOnPath1003" d="M-18.67598684210529 -20.33333333333333H909.922697368421V798.0283900014626H-18.675986842105317V-20.33333333333337Z" fill="none"/><g id="ProcessOnG1004"><g id="ProcessOnG1005"><path id="ProcessOnPath1006" d="M352.0 668.4720119899757C484.73570696742036 668.4720119899756 418.7363325062638 403.2773573132845 551.4720394736842 403.2773573132845" stroke="#323232" stroke-width="2.0" stroke-dasharray="none" fill="none"/><g id="ProcessOnG1007" transform="matrix(1.0,0.0,0.0,1.0,451.7360197368421,527.1246846516301)"><path id="ProcessOnPath1008" d="M0 0H53.0V17.5H0Z" fill="#fff" transform="matrix(1.0,0.0,0.0,1.0,-26.5,0.0)"/><text id="ProcessOnText1009" fill="#323232" font-weight="normal" font-style="normal" text-decoration="blink" font-family="Arial,宋体" text-anchor="middle" font-size="14" x="0.0" y="14.350000000000001">Local:IN</text></g></g><g id="ProcessOnG1010"><path id="ProcessOnPath1011" d="M670.9720394736842 328.878510679868C662.0 250.0 221.0 250.0 232.8947368421052 328.87851067986793" stroke="#323232" stroke-width="2.0" stroke-dasharray="none" fill="none"/><g id="ProcessOnG1012" transform="matrix(1.0,0.0,0.0,1.0,444.10834703947364,260.969627669967)"><path id="ProcessOnPath1013" d="M0 0H86.0V17.5H0Z" fill="#fff" transform="matrix(1.0,0.0,0.0,1.0,-43.0,0.0)"/><text id="ProcessOnText1014" fill="#323232" font-weight="normal" font-style="normal" text-decoration="blink" font-family="Arial,宋体" text-anchor="middle" font-size="14" x="0.0" y="14.350000000000001">Remote:OUT</text></g></g><g id="ProcessOnG1015" transform="matrix(1.0,0.0,0.0,1.0,551.4720394736842,328.878510679868)" opacity="1.0"><path id="ProcessOnPath1016" d="M0.0 4.0Q0.0 0.0 4.0 0.0L235.0 0.0Q239.0 0.0 239.0 4.0L239.0 144.797693266833Q239.0 148.797693266833 235.0 148.797693266833L4.0 148.797693266833Q0.0 148.797693266833 0.0 144.797693266833Z" stroke="#323232" stroke-width="2.0" stroke-dasharray="none" fill="#ffffff"/></g><g id="ProcessOnG1017" transform="matrix(1.0,0.0,0.0,1.0,560.1200657894736,348.916105284379)" opacity="1.0"><path id="ProcessOnPath1018" d="M0.0 0.0L215.35197368421052 0.0L215.35197368421052 39.704122642271955L0.0 39.704122642271955Z" stroke="#323232" stroke-width="2.0" stroke-dasharray="none" fill="#ffffff"/><g id="ProcessOnG1019" transform="matrix(1.0,0.0,0.0,1.0,10.0,9.852061321135977)"><text id="ProcessOnText1020" fill="#323232" font-weight="bold" font-style="normal" text-decoration="blink" font-family="Courier New" text-anchor="middle" font-size="16" x="97.67598684210526" y="16.4">handle_stage_stream</text></g></g><g id="ProcessOnG1021" transform="matrix(1.0,0.0,0.0,1.0,690.4720394736842,407.31658767410363)" opacity="1.0"><path id="ProcessOnPath1022" d="M0.0 0.0L84.99999999999999 0.0L84.99999999999999 25.831628262572753L0.0 25.831628262572753Z" stroke="#323232" stroke-width="2.0" stroke-dasharray="none" fill="#ffffff"/><g id="ProcessOnG1023" transform="matrix(1.0,0.0,0.0,1.0,10.0,2.9158141312863766)"><text id="ProcessOnText1024" fill="#00cc00" font-weight="normal" font-style="normal" text-decoration="blink" font-family="Courier New" text-anchor="middle" font-size="16" x="32.49999999999999" y="16.4">(R, R)</text></g></g><g id="ProcessOnG1025" transform="matrix(1.0,0.0,0.0,1.0,690.4720394736842,433.14821593667654)" opacity="1.0"><path id="ProcessOnPath1026" d="M0.0 0.0L84.99999999999999 0.0L84.99999999999999 25.831628262572753L0.0 25.831628262572753Z" stroke="#323232" stroke-width="2.0" stroke-dasharray="none" fill="#ffffff"/><g id="ProcessOnG1027" transform="matrix(1.0,0.0,0.0,1.0,10.0,2.9158141312863766)"><text id="ProcessOnText1028" fill="#007fff" font-weight="normal" font-style="normal" text-decoration="blink" font-family="Courier New" text-anchor="middle" font-size="16" x="32.49999999999999" y="16.4">(I, I)</text></g></g><g id="ProcessOnG1029" transform="matrix(1.0,0.0,0.0,1.0,648.7771381578946,423.1482159366765)" opacity="1.0"><path id="ProcessOnPath1030" d="M0.0 6.6000000000000005L28.037828947368382 6.6000000000000005L28.037828947368382 0.0L38.03782894736838 10.0L28.037828947368382 20.0L28.037828947368382 13.4L0.0 13.4L0.0 6.6000000000000005Z" stroke="#323232" stroke-width="2.0" stroke-dasharray="none" fill="#ffffff"/></g><g id="ProcessOnG1031" transform="matrix(1.0,0.0,0.0,1.0,560.1200657894736,407.31658767410363)" opacity="1.0"><path id="ProcessOnPath1032" d="M0.0 0.0L84.99999999999999 0.0L84.99999999999999 25.831628262572753L0.0 25.831628262572753Z" stroke="#323232" stroke-width="2.0" stroke-dasharray="none" fill="#ffffff"/><g id="ProcessOnG1033" transform="matrix(1.0,0.0,0.0,1.0,10.0,2.9158141312863766)"><text id="ProcessOnText1034" fill="#00cc00" font-weight="normal" font-style="normal" text-decoration="blink" font-family="Courier New" text-anchor="middle" font-size="16" x="32.49999999999999" y="16.4">(R, W)</text></g></g><g id="ProcessOnG1035" transform="matrix(1.0,0.0,0.0,1.0,560.1200657894736,433.14821593667654)" opacity="1.0"><path id="ProcessOnPath1036" d="M0.0 0.0L84.99999999999999 0.0L84.99999999999999 25.831628262572753L0.0 25.831628262572753Z" stroke="#323232" stroke-width="2.0" stroke-dasharray="none" fill="#ffffff"/><g id="ProcessOnG1037" transform="matrix(1.0,0.0,0.0,1.0,10.0,2.9158141312863766)"><text id="ProcessOnText1038" fill="#007fff" font-weight="normal" font-style="normal" text-decoration="blink" font-family="Courier New" text-anchor="middle" font-size="16" x="32.49999999999999" y="16.4">( ,IO)</text></g></g><g id="ProcessOnG1039" transform="matrix(1.0,0.0,0.0,1.0,1.3240131578947114,-0.3333333333333144)" opacity="1.0"><path id="ProcessOnPath1040" d="M0.0 0.0L208.0 0.0L208.0 29.666666666666664L0.0 29.666666666666664Z" stroke="#323232" stroke-width="2.0" stroke-dasharray="none" fill="#ffffff"/><g id="ProcessOnG1041" transform="matrix(1.0,0.0,0.0,1.0,10.0,4.833333333333332)"><text id="ProcessOnText1042" fill="#323232" font-weight="bold" font-style="normal" text-decoration="blink" font-family="Courier New" text-anchor="middle" font-size="16" x="94.0" y="16.4">__init__</text></g></g><g id="ProcessOnG1043" transform="matrix(1.0,0.0,0.0,1.0,1.3240131578947114,29.333333333333343)" opacity="1.0"><path id="ProcessOnPath1044" d="M0.0 0.0L208.0 0.0L208.0 29.666666666666664L0.0 29.666666666666664Z" stroke="#323232" stroke-width="2.0" stroke-dasharray="none" fill="#ffffff"/><g id="ProcessOnG1045" transform="matrix(1.0,0.0,0.0,1.0,10.0,4.833333333333332)"><text id="ProcessOnText1046" fill="#00cc00" font-weight="normal" font-style="normal" text-decoration="blink" font-family="Courier New" text-anchor="middle" font-size="16" x="94.0" y="16.4">(init, R)</text></g></g><g id="ProcessOnG1047" transform="matrix(1.0,0.0,0.0,1.0,1.3240131578947114,59.0)" opacity="1.0"><path id="ProcessOnPath1048" d="M0.0 0.0L208.0 0.0L208.0 29.666666666666664L0.0 29.666666666666664Z" stroke="#323232" stroke-width="2.0" stroke-dasharray="none" fill="#ffffff"/><g id="ProcessOnG1049" transform="matrix(1.0,0.0,0.0,1.0,10.0,4.833333333333332)"><text id="ProcessOnText1050" fill="#007fff" font-weight="normal" font-style="normal" text-decoration="blink" font-family="Courier New" text-anchor="middle" font-size="16" x="94.0" y="16.4">(I,     )</text></g></g><g id="ProcessOnG1051"><path id="ProcessOnPath1052" d="M209.32401315789468 44.166666666666686L325.2359714961844 44.16666666666667" stroke="#323232" stroke-width="2.0" stroke-dasharray="none" fill="none" marker-end="url(#ProcessOnMarker1053)"/><g id="ProcessOnG1055" transform="matrix(1.0,0.0,0.0,1.0,267.2799923270395,35.41666666666668)"><path id="ProcessOnPath1056" d="M0 0H53.0V17.5H0Z" fill="#fff" transform="matrix(1.0,0.0,0.0,1.0,-26.5,0.0)"/><text id="ProcessOnText1057" fill="#323232" font-weight="normal" font-style="normal" text-decoration="blink" font-family="Arial,宋体" text-anchor="middle" font-size="14" x="0.0" y="14.350000000000001">Local:IN</text></g></g><g id="ProcessOnG1058" transform="matrix(1.0,0.0,0.0,1.0,340.47203947368416,-0.3333333333333002)" opacity="1.0"><path id="ProcessOnPath1059" d="M0.0 0.0L208.0 0.0L208.0 29.666666666666664L0.0 29.666666666666664Z" stroke="#323232" stroke-width="2.0" stroke-dasharray="none" fill="#ffffff"/><g id="ProcessOnG1060" transform="matrix(1.0,0.0,0.0,1.0,10.0,4.833333333333332)"><text id="ProcessOnText1061" fill="#323232" font-weight="bold" font-style="normal" text-decoration="blink" font-family="Courier New" text-anchor="middle" font-size="16" x="94.0" y="16.4">handle_stage_init</text></g></g><g id="ProcessOnG1062" transform="matrix(1.0,0.0,0.0,1.0,340.47203947368416,29.333333333333357)" opacity="1.0"><path id="ProcessOnPath1063" d="M0.0 0.0L208.0 0.0L208.0 29.666666666666664L0.0 29.666666666666664Z" stroke="#323232" stroke-width="2.0" stroke-dasharray="none" fill="#ffffff"/><g id="ProcessOnG1064" transform="matrix(1.0,0.0,0.0,1.0,10.0,4.833333333333332)"><text id="ProcessOnText1065" fill="#00cc00" font-weight="normal" font-style="normal" text-decoration="blink" font-family="Courier New" text-anchor="middle" font-size="16" x="94.0" y="16.4">(R, R)</text></g></g><g id="ProcessOnG1066" transform="matrix(1.0,0.0,0.0,1.0,340.47203947368416,58.999999999999986)" opacity="1.0"><path id="ProcessOnPath1067" d="M0.0 0.0L208.0 0.0L208.0 29.666666666666664L0.0 29.666666666666664Z" stroke="#323232" stroke-width="2.0" stroke-dasharray="none" fill="#ffffff"/><g id="ProcessOnG1068" transform="matrix(1.0,0.0,0.0,1.0,10.0,4.833333333333332)"><text id="ProcessOnText1069" fill="#007fff" font-weight="normal" font-style="normal" text-decoration="blink" font-family="Courier New" text-anchor="middle" font-size="16" x="94.0" y="16.4">(I,  )</text></g></g><g id="ProcessOnG1070" transform="matrix(1.0,0.0,0.0,1.0,680.922697368421,-0.3333333333333286)" opacity="1.0"><path id="ProcessOnPath1071" d="M0.0 0.0L209.0 0.0L209.0 29.666666666666675L0.0 29.666666666666675Z" stroke="#323232" stroke-width="2.0" stroke-dasharray="none" fill="#ffffff"/><g id="ProcessOnG1072" transform="matrix(1.0,0.0,0.0,1.0,10.0,4.8333333333333375)"><text id="ProcessOnText1073" fill="#323232" font-weight="bold" font-style="normal" text-decoration="blink" font-family="Courier New" text-anchor="middle" font-size="16" x="94.5" y="16.4">handle_stage_addr</text></g></g><g id="ProcessOnG1074" transform="matrix(1.0,0.0,0.0,1.0,680.922697368421,29.333333333333357)" opacity="1.0"><path id="ProcessOnPath1075" d="M0.0 0.0L209.0 0.0L209.0 29.666666666666675L0.0 29.666666666666675Z" stroke="#323232" stroke-width="2.0" stroke-dasharray="none" fill="#ffffff"/><g id="ProcessOnG1076" transform="matrix(1.0,0.0,0.0,1.0,10.0,4.8333333333333375)"><text id="ProcessOnText1077" fill="#00cc00" font-weight="normal" font-style="normal" text-decoration="blink" font-family="Courier New" text-anchor="middle" font-size="16" x="94.5" y="16.4">(R, W)</text></g></g><g id="ProcessOnG1078" transform="matrix(1.0,0.0,0.0,1.0,680.922697368421,58.999999999999986)" opacity="1.0"><path id="ProcessOnPath1079" d="M0.0 0.0L209.0 0.0L209.0 29.666666666666675L0.0 29.666666666666675Z" stroke="#323232" stroke-width="2.0" stroke-dasharray="none" fill="#ffffff"/><g id="ProcessOnG1080" transform="matrix(1.0,0.0,0.0,1.0,10.0,4.8333333333333375)"><text id="ProcessOnText1081" fill="#007fff" font-weight="normal" font-style="normal" text-decoration="blink" font-family="Courier New" text-anchor="middle" font-size="16" x="94.5" y="16.4">( ,  )</text></g></g><g id="ProcessOnG1082"><path id="ProcessOnPath1083" d="M548.4720394736842 44.16666666666667L665.6866293909212 44.16666666666667" stroke="#323232" stroke-width="2.0" stroke-dasharray="none" fill="none" marker-end="url(#ProcessOnMarker1084)"/><g id="ProcessOnG1086" transform="matrix(1.0,0.0,0.0,1.0,607.0793344323026,35.41666666666667)"><path id="ProcessOnPath1087" d="M0 0H53.0V17.5H0Z" fill="#fff" transform="matrix(1.0,0.0,0.0,1.0,-26.5,0.0)"/><text id="ProcessOnText1088" fill="#323232" font-weight="normal" font-style="normal" text-decoration="blink" font-family="Arial,宋体" text-anchor="middle" font-size="14" x="0.0" y="14.350000000000001">Local:IN</text></g></g><g id="ProcessOnG1089" transform="matrix(1.0,0.0,0.0,1.0,125.31743421052624,135.97201198997556)" opacity="1.0"><path id="ProcessOnPath1090" d="M0.0 0.0L215.15460526315792 0.0L215.15460526315792 32.33333333333333L0.0 32.33333333333333Z" stroke="#323232" stroke-width="2.0" stroke-dasharray="none" fill="#ffffff"/><g id="ProcessOnG1091" transform="matrix(1.0,0.0,0.0,1.0,10.0,6.166666666666664)"><text id="ProcessOnText1092" fill="#323232" font-weight="bold" font-style="normal" text-decoration="blink" font-family="Courier New" text-anchor="middle" font-size="16" x="97.57730263157896" y="16.4">handle_dns_resolved</text></g></g><g id="ProcessOnG1093" transform="matrix(1.0,0.0,0.0,1.0,125.31743421052624,168.30534532330887)" opacity="1.0"><path id="ProcessOnPath1094" d="M0.0 0.0L215.15460526315792 0.0L215.15460526315792 32.33333333333333L0.0 32.33333333333333Z" stroke="#323232" stroke-width="2.0" stroke-dasharray="none" fill="#ffffff"/><g id="ProcessOnG1095" transform="matrix(1.0,0.0,0.0,1.0,10.0,6.166666666666664)"><text id="ProcessOnText1096" fill="#00cc00" font-weight="normal" font-style="normal" text-decoration="blink" font-family="Courier New" text-anchor="middle" font-size="16" x="97.57730263157896" y="16.4">(R,RW)</text></g></g><g id="ProcessOnG1097" transform="matrix(1.0,0.0,0.0,1.0,125.31743421052624,200.63867865664213)" opacity="1.0"><path id="ProcessOnPath1098" d="M0.0 0.0L215.15460526315792 0.0L215.15460526315792 32.33333333333333L0.0 32.33333333333333Z" stroke="#323232" stroke-width="2.0" stroke-dasharray="none" fill="#ffffff"/><g id="ProcessOnG1099" transform="matrix(1.0,0.0,0.0,1.0,10.0,6.166666666666664)"><text id="ProcessOnText1100" fill="#007fff" font-weight="normal" font-style="normal" text-decoration="blink" font-family="Courier New" text-anchor="middle" font-size="16" x="97.57730263157896" y="16.4">(I,IO)</text></g></g><g id="ProcessOnG1101"><path id="ProcessOnPath1102" d="M785.422697368421 88.66666666666664C784.0 200.0 522.5312615541831 184.4720119899755 355.70810745118393 184.47201198997553" stroke="#323232" stroke-width="2.0" stroke-dasharray="none" fill="none" marker-end="url(#ProcessOnMarker1103)"/><g id="ProcessOnG1105" transform="matrix(1.0,0.0,0.0,1.0,632.5905736852693,169.5693393283211)"><path id="ProcessOnPath1106" d="M0 0H53.0V17.5H0Z" fill="#fff" transform="matrix(1.0,0.0,0.0,1.0,-26.5,0.0)"/><text id="ProcessOnText1107" fill="#323232" font-weight="normal" font-style="normal" text-decoration="blink" font-family="Arial,宋体" text-anchor="middle" font-size="14" x="0.0" y="14.350000000000001">Local:IN</text></g></g><g id="ProcessOnG1108"><path id="ProcessOnPath1109" d="M232.8947368421052 232.97201198997544L232.8947368421052 280.9252613349217L232.8947368421052 280.9252613349217L232.8947368421052 313.64244270236816" stroke="#000000" stroke-width="2.0" stroke-dasharray="none" fill="none" marker-end="url(#ProcessOnMarker1110)"/><g id="ProcessOnG1112" transform="matrix(1.0,0.0,0.0,1.0,232.8947368421052,264.55722734617177)"><path id="ProcessOnPath1113" d="M0 0H86.0V17.5H0Z" fill="#fff" transform="matrix(1.0,0.0,0.0,1.0,-43.0,0.0)"/><text id="ProcessOnText1114" fill="#323232" font-weight="normal" font-style="normal" text-decoration="blink" font-family="Arial,宋体" text-anchor="middle" font-size="14" x="0.0" y="14.350000000000001">Remote:OUT</text></g></g><g id="ProcessOnG1115" transform="matrix(1.0,0.0,0.0,1.0,113.3947368421052,629.2306967346296)" opacity="1.0"><path id="ProcessOnPath1116" d="M0.0 4.0Q0.0 0.0 4.0 0.0L235.0 0.0Q239.0 0.0 239.0 4.0L239.0 144.797693266833Q239.0 148.797693266833 235.0 148.797693266833L4.0 148.797693266833Q0.0 148.797693266833 0.0 144.797693266833Z" stroke="#323232" stroke-width="2.0" stroke-dasharray="none" fill="#ffffff"/></g><g id="ProcessOnG1117" transform="matrix(1.0,0.0,0.0,1.0,122.04276315789468,649.2682913391409)" opacity="1.0"><path id="ProcessOnPath1118" d="M0.0 0.0L215.35197368421052 0.0L215.35197368421052 39.704122642271955L0.0 39.704122642271955Z" stroke="#323232" stroke-width="2.0" stroke-dasharray="none" fill="#ffffff"/><g id="ProcessOnG1119" transform="matrix(1.0,0.0,0.0,1.0,10.0,9.852061321135977)"><text id="ProcessOnText1120" fill="#323232" font-weight="bold" font-style="normal" text-decoration="blink" font-family="Courier New" text-anchor="middle" font-size="16" x="97.67598684210526" y="16.4">on_remote_read</text></g></g><g id="ProcessOnG1121" transform="matrix(1.0,0.0,0.0,1.0,252.3947368421052,707.6687737288653)" opacity="1.0"><path id="ProcessOnPath1122" d="M0.0 0.0L84.99999999999999 0.0L84.99999999999999 25.831628262572753L0.0 25.831628262572753Z" stroke="#323232" stroke-width="2.0" stroke-dasharray="none" fill="#ffffff"/><g id="ProcessOnG1123" transform="matrix(1.0,0.0,0.0,1.0,10.0,2.9158141312863766)"><text id="ProcessOnText1124" fill="#00cc00" font-weight="normal" font-style="normal" text-decoration="blink" font-family="Courier New" text-anchor="middle" font-size="16" x="32.49999999999999" y="16.4">(R, R)</text></g></g><g id="ProcessOnG1125" transform="matrix(1.0,0.0,0.0,1.0,252.3947368421052,733.5004019914384)" opacity="1.0"><path id="ProcessOnPath1126" d="M0.0 0.0L84.99999999999999 0.0L84.99999999999999 25.831628262572753L0.0 25.831628262572753Z" stroke="#323232" stroke-width="2.0" stroke-dasharray="none" fill="#ffffff"/><g id="ProcessOnG1127" transform="matrix(1.0,0.0,0.0,1.0,10.0,2.9158141312863766)"><text id="ProcessOnText1128" fill="#007fff" font-weight="normal" font-style="normal" text-decoration="blink" font-family="Courier New" text-anchor="middle" font-size="16" x="32.49999999999999" y="16.4">(I, I)</text></g></g><g id="ProcessOnG1129" transform="matrix(1.0,0.0,0.0,1.0,210.69983552631572,723.5004019914381)" opacity="1.0"><path id="ProcessOnPath1130" d="M0.0 6.6000000000000005L28.037828947368382 6.6000000000000005L28.037828947368382 0.0L38.03782894736838 10.0L28.037828947368382 20.0L28.037828947368382 13.4L0.0 13.4L0.0 6.6000000000000005Z" stroke="#323232" stroke-width="2.0" stroke-dasharray="none" fill="#ffffff"/></g><g id="ProcessOnG1131"><path id="ProcessOnPath1132" d="M670.9720394736842 477.6762039467009C553.0 478.0 477.0 704.0 352.3947368421052 703.6295433680461" stroke="#000000" stroke-width="2.0" stroke-dasharray="none" fill="none"/><g id="ProcessOnG1133" transform="matrix(1.0,0.0,0.0,1.0,514.1708470394736,582.1632184143434)"><path id="ProcessOnPath1134" d="M0 0H70.0V17.5H0Z" fill="#fff" transform="matrix(1.0,0.0,0.0,1.0,-35.0,0.0)"/><text id="ProcessOnText1135" fill="#000000" font-weight="normal" font-style="normal" text-decoration="blink" font-family="Arial,宋体" text-anchor="middle" font-size="14" x="0.0" y="14.350000000000001">Remote:IN</text></g></g><g id="ProcessOnG1136" transform="matrix(1.0,0.0,0.0,1.0,122.04276315789468,707.6687737288653)" opacity="1.0"><path id="ProcessOnPath1137" d="M0.0 0.0L84.99999999999999 0.0L84.99999999999999 25.831628262572753L0.0 25.831628262572753Z" stroke="#323232" stroke-width="2.0" stroke-dasharray="none" fill="#ffffff"/><g id="ProcessOnG1138" transform="matrix(1.0,0.0,0.0,1.0,10.0,2.9158141312863766)"><text id="ProcessOnText1139" fill="#00cc00" font-weight="normal" font-style="normal" text-decoration="blink" font-family="Courier New" text-anchor="middle" font-size="16" x="32.49999999999999" y="16.4">(W ,R)</text></g></g><g id="ProcessOnG1140" transform="matrix(1.0,0.0,0.0,1.0,122.04276315789468,733.5004019914384)" opacity="1.0"><path id="ProcessOnPath1141" d="M0.0 0.0L84.99999999999999 0.0L84.99999999999999 25.831628262572753L0.0 25.831628262572753Z" stroke="#323232" stroke-width="2.0" stroke-dasharray="none" fill="#ffffff"/><g id="ProcessOnG1142" transform="matrix(1.0,0.0,0.0,1.0,10.0,2.9158141312863766)"><text id="ProcessOnText1143" fill="#007fff" font-weight="normal" font-style="normal" text-decoration="blink" font-family="Courier New" text-anchor="middle" font-size="16" x="32.49999999999999" y="16.4">(IO, )</text></g></g><g id="ProcessOnG1144" transform="matrix(1.0,0.0,0.0,1.0,113.3947368421052,328.87851067986793)" opacity="1.0"><path id="ProcessOnPath1145" d="M0.0 4.0Q0.0 0.0 4.0 0.0L235.0 0.0Q239.0 0.0 239.0 4.0L239.0 144.797693266833Q239.0 148.797693266833 235.0 148.797693266833L4.0 148.797693266833Q0.0 148.797693266833 0.0 144.797693266833Z" stroke="#323232" stroke-width="2.0" stroke-dasharray="none" fill="#ffffff"/></g><g id="ProcessOnG1146" transform="matrix(1.0,0.0,0.0,1.0,122.04276315789468,348.9161052843791)" opacity="1.0"><path id="ProcessOnPath1147" d="M0.0 0.0L215.35197368421052 0.0L215.35197368421052 39.704122642271955L0.0 39.704122642271955Z" stroke="#323232" stroke-width="2.0" stroke-dasharray="none" fill="#ffffff"/><g id="ProcessOnG1148" transform="matrix(1.0,0.0,0.0,1.0,10.0,9.852061321135977)"><text id="ProcessOnText1149" fill="#323232" font-weight="bold" font-style="normal" text-decoration="blink" font-family="Courier New" text-anchor="middle" font-size="16" x="97.67598684210526" y="16.4">on_remote_write</text></g></g><g id="ProcessOnG1150" transform="matrix(1.0,0.0,0.0,1.0,252.39473684210532,407.3165876741035)" opacity="1.0"><path id="ProcessOnPath1151" d="M0.0 0.0L84.99999999999999 0.0L84.99999999999999 25.831628262572753L0.0 25.831628262572753Z" stroke="#323232" stroke-width="2.0" stroke-dasharray="none" fill="#ffffff"/><g id="ProcessOnG1152" transform="matrix(1.0,0.0,0.0,1.0,10.0,2.9158141312863766)"><text id="ProcessOnText1153" fill="#00cc00" font-weight="normal" font-style="normal" text-decoration="blink" font-family="Courier New" text-anchor="middle" font-size="16" x="32.49999999999999" y="16.4">(R, R)</text></g></g><g id="ProcessOnG1154" transform="matrix(1.0,0.0,0.0,1.0,252.39473684210532,433.14821593667637)" opacity="1.0"><path id="ProcessOnPath1155" d="M0.0 0.0L84.99999999999999 0.0L84.99999999999999 25.831628262572753L0.0 25.831628262572753Z" stroke="#323232" stroke-width="2.0" stroke-dasharray="none" fill="#ffffff"/><g id="ProcessOnG1156" transform="matrix(1.0,0.0,0.0,1.0,10.0,2.9158141312863766)"><text id="ProcessOnText1157" fill="#007fff" font-weight="normal" font-style="normal" text-decoration="blink" font-family="Courier New" text-anchor="middle" font-size="16" x="32.49999999999999" y="16.4">(I, I)</text></g></g><g id="ProcessOnG1158" transform="matrix(1.0,0.0,0.0,1.0,210.69983552631572,423.14821593667637)" opacity="1.0"><path id="ProcessOnPath1159" d="M0.0 6.6000000000000005L28.037828947368382 6.6000000000000005L28.037828947368382 0.0L38.03782894736838 10.0L28.037828947368382 20.0L28.037828947368382 13.4L0.0 13.4L0.0 6.6000000000000005Z" stroke="#323232" stroke-width="2.0" stroke-dasharray="none" fill="#ffffff"/></g><g id="ProcessOnG1160" transform="matrix(1.0,0.0,0.0,1.0,122.04276315789468,407.3165876741035)" opacity="1.0"><path id="ProcessOnPath1161" d="M0.0 0.0L84.99999999999999 0.0L84.99999999999999 25.831628262572753L0.0 25.831628262572753Z" stroke="#323232" stroke-width="2.0" stroke-dasharray="none" fill="#ffffff"/><g id="ProcessOnG1162" transform="matrix(1.0,0.0,0.0,1.0,10.0,2.9158141312863766)"><text id="ProcessOnText1163" fill="#00cc00" font-weight="normal" font-style="normal" text-decoration="blink" font-family="Courier New" text-anchor="middle" font-size="16" x="32.49999999999999" y="16.4">(R, W)</text></g></g><g id="ProcessOnG1164" transform="matrix(1.0,0.0,0.0,1.0,122.04276315789468,433.14821593667637)" opacity="1.0"><path id="ProcessOnPath1165" d="M0.0 0.0L84.99999999999999 0.0L84.99999999999999 25.831628262572753L0.0 25.831628262572753Z" stroke="#323232" stroke-width="2.0" stroke-dasharray="none" fill="#ffffff"/><g id="ProcessOnG1166" transform="matrix(1.0,0.0,0.0,1.0,10.0,2.9158141312863766)"><text id="ProcessOnText1167" fill="#007fff" font-weight="normal" font-style="normal" text-decoration="blink" font-family="Courier New" text-anchor="middle" font-size="16" x="32.49999999999999" y="16.4">( ,IO)</text></g></g><g id="ProcessOnG1168"><path id="ProcessOnPath1169" d="M232.8947368421052 328.87851067986793C141.0 249.0 32.0 322.0 113.3947368421052 403.27735731328437" stroke="#000000" stroke-width="2.0" stroke-dasharray="2.0 3.0" fill="none"/><g id="ProcessOnG1170" transform="matrix(1.0,0.0,0.0,1.0,108.1611842105263,296.89448349914403)"><path id="ProcessOnPath1171" d="M0 0H86.0V17.5H0Z" fill="#fff" transform="matrix(1.0,0.0,0.0,1.0,-43.0,0.0)"/><text id="ProcessOnText1172" fill="#323232" font-weight="normal" font-style="normal" text-decoration="blink" font-family="Arial,宋体" text-anchor="middle" font-size="14" x="0.0" y="14.350000000000001">Remote:OUT</text></g></g><g id="ProcessOnG1173"><path id="ProcessOnPath1174" d="M670.9720394736842 328.878510679868C591.0 257.0 447.0 320.0 551.4720394736842 403.2773573132845" stroke="#323232" stroke-width="2.0" stroke-dasharray="2.0 3.0" fill="none"/><g id="ProcessOnG1175" transform="matrix(1.0,0.0,0.0,1.0,542.055509868421,299.14448349914403)"><path id="ProcessOnPath1176" d="M0 0H53.0V17.5H0Z" fill="#fff" transform="matrix(1.0,0.0,0.0,1.0,-26.5,0.0)"/><text id="ProcessOnText1177" fill="#323232" font-weight="normal" font-style="normal" text-decoration="blink" font-family="Arial,宋体" text-anchor="middle" font-size="14" x="0.0" y="14.350000000000001">Local:IN</text></g></g><g id="ProcessOnG1178"><path id="ProcessOnPath1179" d="M352.3947368421052 403.27735731328437L451.9333881578947 403.27735731328437L451.9333881578947 403.2773573132845L536.2359714961843 403.2773573132845" stroke="#323232" stroke-width="2.0" stroke-dasharray="none" fill="none" marker-end="url(#ProcessOnMarker1180)"/><g id="ProcessOnG1182" transform="matrix(1.0,0.0,0.0,1.0,444.3153541691448,394.52735731328437)"><path id="ProcessOnPath1183" d="M0 0H53.0V17.5H0Z" fill="#fff" transform="matrix(1.0,0.0,0.0,1.0,-26.5,0.0)"/><text id="ProcessOnText1184" fill="#323232" font-weight="normal" font-style="normal" text-decoration="blink" font-family="Arial,宋体" text-anchor="middle" font-size="14" x="0.0" y="14.350000000000001">Local:IN</text></g></g><g id="ProcessOnG1185"><path id="ProcessOnPath1186" d="M232.8947368421052 492.91227192420064L232.8947368421052 613.9946287571298" stroke="#323232" stroke-width="2.0" stroke-dasharray="none" fill="none" marker-start="url(#ProcessOnMarker1187)" marker-end="url(#ProcessOnMarker1189)"/><g id="ProcessOnG1191" transform="matrix(1.0,0.0,0.0,1.0,232.8947368421052,544.7034503406652)"><path id="ProcessOnPath1192" d="M0 0H122.0V17.5H0Z" fill="#fff" transform="matrix(1.0,0.0,0.0,1.0,-61.0,0.0)"/><text id="ProcessOnText1193" fill="#323232" font-weight="normal" font-style="normal" text-decoration="blink" font-family="Arial,宋体" text-anchor="middle" font-size="14" x="0.0" y="14.350000000000001">Remote: IN &amp; OUT</text></g></g><g id="ProcessOnG1194"><path id="ProcessOnPath1195" d="M113.3947368421052 703.6295433680461C21.0 617.4720119899757 154.0 552.4720119899757 232.8947368421052 629.2306967346296" stroke="#323232" stroke-width="2.0" stroke-dasharray="2.0 3.0" fill="none"/><g id="ProcessOnG1196" transform="matrix(1.0,0.0,0.0,1.0,108.9111842105263,596.5865390053162)"><path id="ProcessOnPath1197" d="M0 0H70.0V17.5H0Z" fill="#fff" transform="matrix(1.0,0.0,0.0,1.0,-35.0,0.0)"/><text id="ProcessOnText1198" fill="#323232" font-weight="normal" font-style="normal" text-decoration="blink" font-family="Arial,宋体" text-anchor="middle" font-size="14" x="0.0" y="14.350000000000001">Remote:IN</text></g></g><g id="ProcessOnG1199" transform="matrix(1.0,0.0,0.0,1.0,551.4720394736842,629.2306967346296)" opacity="1.0"><path id="ProcessOnPath1200" d="M0.0 4.0Q0.0 0.0 4.0 0.0L235.0 0.0Q239.0 0.0 239.0 4.0L239.0 144.797693266833Q239.0 148.797693266833 235.0 148.797693266833L4.0 148.797693266833Q0.0 148.797693266833 0.0 144.797693266833Z" stroke="#323232" stroke-width="2.0" stroke-dasharray="none" fill="#ffffff"/></g><g id="ProcessOnG1201" transform="matrix(1.0,0.0,0.0,1.0,560.1200657894736,649.2682913391409)" opacity="1.0"><path id="ProcessOnPath1202" d="M0.0 0.0L215.35197368421052 0.0L215.35197368421052 39.704122642271955L0.0 39.704122642271955Z" stroke="#323232" stroke-width="2.0" stroke-dasharray="none" fill="#ffffff"/><g id="ProcessOnG1203" transform="matrix(1.0,0.0,0.0,1.0,10.0,9.852061321135977)"><text id="ProcessOnText1204" fill="#323232" font-weight="bold" font-style="normal" text-decoration="blink" font-family="Courier New" text-anchor="middle" font-size="16" x="97.67598684210526" y="16.4">on_local_write</text></g></g><g id="ProcessOnG1205" transform="matrix(1.0,0.0,0.0,1.0,690.4720394736842,707.6687737288653)" opacity="1.0"><path id="ProcessOnPath1206" d="M0.0 0.0L84.99999999999999 0.0L84.99999999999999 25.831628262572753L0.0 25.831628262572753Z" stroke="#323232" stroke-width="2.0" stroke-dasharray="none" fill="#ffffff"/><g id="ProcessOnG1207" transform="matrix(1.0,0.0,0.0,1.0,10.0,2.9158141312863766)"><text id="ProcessOnText1208" fill="#00cc00" font-weight="normal" font-style="normal" text-decoration="blink" font-family="Courier New" text-anchor="middle" font-size="16" x="32.49999999999999" y="16.4">(R, R)</text></g></g><g id="ProcessOnG1209" transform="matrix(1.0,0.0,0.0,1.0,690.4720394736842,733.5004019914384)" opacity="1.0"><path id="ProcessOnPath1210" d="M0.0 0.0L84.99999999999999 0.0L84.99999999999999 25.831628262572753L0.0 25.831628262572753Z" stroke="#323232" stroke-width="2.0" stroke-dasharray="none" fill="#ffffff"/><g id="ProcessOnG1211" transform="matrix(1.0,0.0,0.0,1.0,10.0,2.9158141312863766)"><text id="ProcessOnText1212" fill="#007fff" font-weight="normal" font-style="normal" text-decoration="blink" font-family="Courier New" text-anchor="middle" font-size="16" x="32.49999999999999" y="16.4">(I, I)</text></g></g><g id="ProcessOnG1213" transform="matrix(1.0,0.0,0.0,1.0,648.7771381578947,723.5004019914381)" opacity="1.0"><path id="ProcessOnPath1214" d="M0.0 6.6000000000000005L28.037828947368382 6.6000000000000005L28.037828947368382 0.0L38.03782894736838 10.0L28.037828947368382 20.0L28.037828947368382 13.4L0.0 13.4L0.0 6.6000000000000005Z" stroke="#323232" stroke-width="2.0" stroke-dasharray="none" fill="#ffffff"/></g><g id="ProcessOnG1215" transform="matrix(1.0,0.0,0.0,1.0,560.1200657894736,707.6687737288653)" opacity="1.0"><path id="ProcessOnPath1216" d="M0.0 0.0L84.99999999999999 0.0L84.99999999999999 25.831628262572753L0.0 25.831628262572753Z" stroke="#323232" stroke-width="2.0" stroke-dasharray="none" fill="#ffffff"/><g id="ProcessOnG1217" transform="matrix(1.0,0.0,0.0,1.0,10.0,2.9158141312863766)"><text id="ProcessOnText1218" fill="#00cc00" font-weight="normal" font-style="normal" text-decoration="blink" font-family="Courier New" text-anchor="middle" font-size="16" x="32.49999999999999" y="16.4">(W ,R)</text></g></g><g id="ProcessOnG1219" transform="matrix(1.0,0.0,0.0,1.0,560.1200657894736,733.5004019914384)" opacity="1.0"><path id="ProcessOnPath1220" d="M0.0 0.0L84.99999999999999 0.0L84.99999999999999 25.831628262572753L0.0 25.831628262572753Z" stroke="#323232" stroke-width="2.0" stroke-dasharray="none" fill="#ffffff"/><g id="ProcessOnG1221" transform="matrix(1.0,0.0,0.0,1.0,10.0,2.9158141312863766)"><text id="ProcessOnText1222" fill="#007fff" font-weight="normal" font-style="normal" text-decoration="blink" font-family="Courier New" text-anchor="middle" font-size="16" x="32.49999999999999" y="16.4">(IO, )</text></g></g><g id="ProcessOnG1223"><path id="ProcessOnPath1224" d="M790.4720394736842 703.6295433680461C861.0 703.0 880.0 405.0 805.7052878001567 403.57046623333866" stroke="#323232" stroke-width="2.0" stroke-dasharray="none" fill="none" marker-end="url(#ProcessOnMarker1225)"/><g id="ProcessOnG1227" transform="matrix(1.0,0.0,0.0,1.0,852.3971659092301,545.150001200173)"><path id="ProcessOnPath1228" d="M0 0H53.0V17.5H0Z" fill="#fff" transform="matrix(1.0,0.0,0.0,1.0,-26.5,0.0)"/><text id="ProcessOnText1229" fill="#323232" font-weight="normal" font-style="normal" text-decoration="blink" font-family="Arial,宋体" text-anchor="middle" font-size="14" x="0.0" y="14.350000000000001">Local:IN</text></g></g><g id="ProcessOnG1230"><path id="ProcessOnPath1231" d="M551.4720394736842 703.6295433680461L367.630804819605 703.6295433680461" stroke="#323232" stroke-width="2.0" stroke-dasharray="none" fill="none" marker-end="url(#ProcessOnMarker1232)"/><g id="ProcessOnG1234" transform="matrix(1.0,0.0,0.0,1.0,459.55142214664454,694.8795433680461)"><path id="ProcessOnPath1235" d="M0 0H70.0V17.5H0Z" fill="#fff" transform="matrix(1.0,0.0,0.0,1.0,-35.0,0.0)"/><text id="ProcessOnText1236" fill="#323232" font-weight="normal" font-style="normal" text-decoration="blink" font-family="Arial,宋体" text-anchor="middle" font-size="14" x="0.0" y="14.350000000000001">Remote:IN</text></g></g></g></g></svg>